<svg width="212.853857421875px" height="122px" xmlns="http://www.w3.org/2000/svg" viewBox="143.5730712890625 14 212.853857421875 122" style="background: rgba(0, 0, 0, 0);" preserveAspectRatio="xMidYMid"><defs><linearGradient id="editing-gradient-gradient" x1="0.15267081477050132" x2="0.8473291852294986" y1="0.14033009983067446" y2="0.8596699001693255" gradientUnits="objectBoundingBox"><stop offset="0" stop-color="#f0f"></stop><stop offset="1" stop-color="#0ff"></stop></linearGradient></defs><g><g transform="translate(180.3917025923729, 97.43000030517578)"><path d="M27.84-9.86L27.84-9.86L27.84-9.86Q29.06-8.32 29.06-5.34L29.06-5.34L29.06-5.34Q29.06-2.37 26.78-0.54L26.78-0.54L26.78-0.54Q24.51 1.28 20.54 1.28L20.54 1.28L20.54 1.28Q18.24 1.28 14.66 0.77L14.66 0.77L14.66 0.77Q7.62-0.32 5.60-0.32L5.60-0.32L5.60-0.32Q3.58-0.32 2.75-0.22L2.75-0.22L2.75-0.22Q1.92-0.13 0.58 0L0.58 0L8.32-42.24L22.34-42.24L15.94-7.04L15.94-7.04Q16.77-6.91 17.54-6.91L17.54-6.91L19.14-6.91L19.14-6.91Q24.51-6.91 27.84-9.86ZM46.59 0L32.64 0L40.77-42.24L54.85-42.24L46.59 0ZM57.22-15.62L57.22-15.62L57.22-15.62Q57.22-27.71 63.49-35.33L63.49-35.33L63.49-35.33Q70.14-43.58 81.73-43.58L81.73-43.58L81.73-43.58Q90.11-43.58 94.34-39.52L94.34-39.52L94.34-39.52Q98.56-35.46 98.56-26.88L98.56-26.88L98.56-26.88Q98.56-13.82 91.90-6.21L91.90-6.21L91.90-6.21Q85.31 1.28 74.24 1.28L74.24 1.28L74.24 1.28Q65.60 1.28 61.41-3.04L61.41-3.04L61.41-3.04Q57.22-7.36 57.22-15.62ZM74.05-28.86L74.05-28.86L74.05-28.86Q71.17-17.34 71.17-8.26L71.17-8.26L71.17-8.26Q71.17-6.08 71.90-4.67L71.90-4.67L71.90-4.67Q72.64-3.26 74.59-3.26L74.59-3.26L74.59-3.26Q76.54-3.26 77.76-4.19L77.76-4.19L77.76-4.19Q78.98-5.12 79.94-7.23L79.94-7.23L79.94-7.23Q81.47-10.69 82.91-18.02L82.91-18.02L82.91-18.02Q84.35-25.34 84.48-28.38L84.48-28.38L84.48-28.38Q84.61-31.42 84.61-33.73L84.61-33.73L84.61-33.73Q84.61-36.03 83.90-37.50L83.90-37.50L83.90-37.50Q83.20-38.98 81.31-38.98L81.31-38.98L81.31-38.98Q79.42-38.98 78.14-37.82L78.14-37.82L78.14-37.82Q75.78-35.65 74.05-28.86ZM103.68-39.87L103.68-39.87L103.68-39.87Q106.69-43.39 111.68-43.39L111.68-43.39L111.68-43.39Q115.65-43.39 117.76-41.86L117.76-41.86L117.76-41.86Q119.87-40.26 121.28-36.35L121.28-36.35L123.97-28.74L133.63-42.18L142.27-42.18L126.59-21.38L130.62-9.98L130.62-9.98Q131.52-7.42 133.09-5.54L133.09-5.54L133.09-5.54Q134.66-3.65 136.06-3.33L136.06-3.33L136.06-3.33Q134.78-0.90 132.58 0.19L132.58 0.19L132.58 0.19Q130.37 1.28 127.14 1.28L127.14 1.28L127.14 1.28Q123.90 1.28 121.63-0.83L121.63-0.83L121.63-0.83Q119.36-2.94 117.63-7.68L117.63-7.68L115.78-12.80L106.11 0L98.24 0L112.96-20.42L108.35-33.28L108.35-33.28Q107.33-36.10 106.30-37.54L106.30-37.54L106.30-37.54Q105.28-38.98 103.68-39.87Z" fill="url(#editing-gradient-gradient)"></path></g></g><style>text {
  font-size: 64px;
  font-family: Arial Black;
  dominant-baseline: central;
  text-anchor: middle;
}</style></svg>