<svg id="Capa_1" data-name="Capa 1" xmlns="http://www.w3.org/2000/svg" width="20" height="24" viewBox="0 0 20 24">
  <defs>
    <style>
      .cls-1 {
        fill: #fff;
      }
    </style>
  </defs>
  <path d="M12,5.8s.13,0,.14-.07S12,5.59,12,5.59a.33.33,0,0,0-.26,0s0,0,0,0v0c0,.06.11,0,.16.07S11.94,5.8,12,5.8Z" transform="translate(-2 0)"/>
  <path class="cls-1" d="M2.11,22a1.49,1.49,0,0,0,1,.6,11,11,0,0,1,2.81.6,4,4,0,0,0,2.64.47,1.83,1.83,0,0,0,1.23-1c.59,0,1.24-.27,2.28-.33.71-.06,1.59.26,2.61.2a1.6,1.6,0,0,0,.11.33h0A1.89,1.89,0,0,0,16.65,24a3.57,3.57,0,0,0,2.29-1.3,8.22,8.22,0,0,1,2.4-1.51,1.08,1.08,0,0,0,.66-.85A2,2,0,0,0,21.28,19v-.09h0a2.27,2.27,0,0,1-.34-.92,1.68,1.68,0,0,0-.5-1.05h0a1.62,1.62,0,0,1-.19-.13.44.44,0,0,0-.19-.07A5.25,5.25,0,0,0,19.87,13a12.18,12.18,0,0,0-2.2-3.48,5.28,5.28,0,0,1-1.58-3.37C16.12,4,16.33,0,12.51,0L12,0c-4.27.33-3.14,4.81-3.2,6.3a5.38,5.38,0,0,1-1.06,3A14.66,14.66,0,0,0,5,13.86a5.25,5.25,0,0,0-.29,2.49.36.36,0,0,0-.11.13c-.27.27-.46.6-.67.84a2.36,2.36,0,0,1-.81.4,1.47,1.47,0,0,0-.87.68,1.42,1.42,0,0,0-.14.6,2.61,2.61,0,0,0,.06.54,2.34,2.34,0,0,1,0,1A1.86,1.86,0,0,0,2.11,22Zm18.14-4.86h0a1.84,1.84,0,0,1,.39.88,2.27,2.27,0,0,0,.41,1.06c.5.53.66.91.65,1.14h0v0c0,.27-.19.4-.51.6a8.44,8.44,0,0,0-2.48,1.57,3.14,3.14,0,0,1-2.06,1.19,1.52,1.52,0,0,1-1.59-.9h0A2.54,2.54,0,0,1,15.12,21a11.91,11.91,0,0,0,.47-1.9,9.67,9.67,0,0,1,.19-1.81,1.51,1.51,0,0,1,.65-1l.05,0h0a1.45,1.45,0,0,0,.89,1.38,2.23,2.23,0,0,0,1.81-.77h.22A1,1,0,0,1,20.25,17.14ZM11.86,4.91A1.68,1.68,0,0,1,12,4.14a1.09,1.09,0,0,1,.43-.54,1.1,1.1,0,0,1,.61-.19h0a1,1,0,0,1,.59.19,1.64,1.64,0,0,1,.44.54,1.85,1.85,0,0,1,.17.72s0,0,0-.06v.11a0,0,0,0,1,0,0v0a2,2,0,0,1-.15.71.91.91,0,0,1-.22.33l-.09,0a1.51,1.51,0,0,1-.29-.13l-.22-.07a1.8,1.8,0,0,0,.19-.2,1.1,1.1,0,0,0,.08-.4V5a.93.93,0,0,0-.06-.4,1.35,1.35,0,0,0-.18-.33.47.47,0,0,0-.27-.14h0a.3.3,0,0,0-.26.14.72.72,0,0,0-.21.33,1.11,1.11,0,0,0-.09.4v0a2.45,2.45,0,0,0,0,.27l-.62-.2a1.41,1.41,0,0,1,0-.2ZM9.34,4.2a1.42,1.42,0,0,1,.29-.54.58.58,0,0,1,.42-.2h0a.69.69,0,0,1,.4.14,1.41,1.41,0,0,1,.35.46,1.74,1.74,0,0,1,.15.67h0A1.08,1.08,0,0,1,11,5v.08l-.08,0a2.49,2.49,0,0,0-.4.19,1.13,1.13,0,0,0,0-.26V5a1.32,1.32,0,0,0-.08-.33.65.65,0,0,0-.17-.27.23.23,0,0,0-.18-.06h0a.23.23,0,0,0-.2.13.66.66,0,0,0-.12.27,1.22,1.22,0,0,0,0,.33v0a1.32,1.32,0,0,0,.08.33.7.7,0,0,0,.17.27l0,0a1.15,1.15,0,0,0-.17.14.37.37,0,0,1-.14.07,2.9,2.9,0,0,1-.27-.41,1.69,1.69,0,0,1-.16-.66A1.67,1.67,0,0,1,9.34,4.2Zm.11,2.1c.22-.13.38-.27.49-.33l.17-.13h0a1.62,1.62,0,0,1,1.32-.67,2.07,2.07,0,0,1,1.22.4A4.64,4.64,0,0,0,13.73,6h0a1.09,1.09,0,0,1,.49.4V6.3a.55.55,0,0,1,0,.47,1.79,1.79,0,0,1-1.07.85h0c-.27.13-.51.33-.79.46a1.86,1.86,0,0,1-1,.27,1,1,0,0,1-.46-.07,3.37,3.37,0,0,1-.32-.19A5.29,5.29,0,0,0,10,7.62h0a1.64,1.64,0,0,1-.69-.71A.52.52,0,0,1,9.45,6.3ZM6.3,13.75A9.59,9.59,0,0,1,7.59,11c.1-.07,0,.13-.42,1S6,14.46,7.05,15.82a8.16,8.16,0,0,1,.65-2.88c.57-1.28,1.77-3.5,1.86-5.27,0,0,.22.14.29.2.22.14.39.34.6.47a1.21,1.21,0,0,0,.89.33h.11a2.18,2.18,0,0,0,1-.27c.29-.13.52-.33.74-.4h0a1.93,1.93,0,0,0,1.06-.7A23.68,23.68,0,0,0,16,11.78a10.42,10.42,0,0,1,1.12,3,2,2,0,0,1,.52.06c.65-1.67-.56-3.46-1.1-4-.23-.2-.24-.34-.13-.34a5.83,5.83,0,0,1,1.67,2.76,3.49,3.49,0,0,1,0,1.67.74.74,0,0,0,.21.07c1,.53,1.42.93,1.24,1.53v0h-.2c.15-.47-.18-.83-1.08-1.22s-1.66-.34-1.79.46c0,0,0,.07,0,.14l-.22.06a1.84,1.84,0,0,0-.8,1.19,9.83,9.83,0,0,0-.2,1.87h0a8.63,8.63,0,0,1-.33,1.35,4.7,4.7,0,0,1-5.41.33,3,3,0,0,0-.4-.53,1.81,1.81,0,0,0-.28-.33,1.61,1.61,0,0,0,.47-.07.68.68,0,0,0,.32-.33,1.35,1.35,0,0,0-.35-1.17,6.71,6.71,0,0,0-1.81-1.52A2.58,2.58,0,0,1,6.31,15.4,3.08,3.08,0,0,1,6.3,13.75ZM2.55,20.56h0a2.37,2.37,0,0,0,0-1.12,1.58,1.58,0,0,1,0-.94c.16-.34.4-.4.69-.53a3.14,3.14,0,0,0,.93-.47h0c.26-.26.45-.6.68-.83a.85.85,0,0,1,.67-.34h.17a1.73,1.73,0,0,1,1,.76l.92,1.66h0a10,10,0,0,0,1.2,1.64A2.75,2.75,0,0,1,9.61,22h0a1.34,1.34,0,0,1-1.14,1.29,3.77,3.77,0,0,1-2.42-.46,8.52,8.52,0,0,0-2.89-.61,1,1,0,0,1-.74-.4A1.62,1.62,0,0,1,2.55,20.56Z" transform="translate(-2 0)"/>
  <path d="M10.82,5.8s.09,0,.14-.07.15,0,.17-.07h0v0a.09.09,0,0,0,0,0,.36.36,0,0,0-.27,0c-.06,0-.16.07-.15.14S10.77,5.8,10.82,5.8ZM10,7.31a2.39,2.39,0,0,0,1.29.47,3.83,3.83,0,0,0,1.51-.53h0c.23-.14.51-.34.7-.47s.28-.32.15-.33-.13.13-.29.26-.45.34-.65.47a3.19,3.19,0,0,1-1.42.47,2.08,2.08,0,0,1-1.17-.47,4.26,4.26,0,0,0-.37-.33c-.07-.07-.09-.19-.2-.2s-.09.2.07.33S9.82,7.18,10,7.31Z" transform="translate(-2 0)"/>
</svg>
