<svg id="Capa_1" data-name="Capa 1" xmlns="http://www.w3.org/2000/svg" width="32" height="32" viewBox="0 0 32 32">
  <defs>
    <style>
      .cls-1 {
        fill: #fff;
      }
    </style>
  </defs>
  <path class="cls-1" d="M23.75,30c-.12.07-.11.09,0,0l.1-.06S23.85,30,23.75,30Zm.24-.12c-.06,0-.06,0,0,0s.07,0,.07-.05S24.05,29.82,24,29.88Zm.16-.1c-.06,0-.06,0,0,0l.06-.05S24.21,29.73,24.15,29.78Zm.15-.09c-.05,0-.05,0,0,0l.07,0S24.36,29.64,24.3,29.69Zm.22-.14c-.11.07-.15.12-.05.06s.18-.13.16-.13l-.12.07ZM15,0l-.48,0A16,16,0,0,0,3,6.68a15.8,15.8,0,0,0-2.82,7A12.06,12.06,0,0,0,0,16a12,12,0,0,0,.15,2.33A16.06,16.06,0,0,0,11.09,31.26a17.39,17.39,0,0,0,3.38.7,26,26,0,0,0,3.06,0,16.38,16.38,0,0,0,5.77-1.68c.27-.14.33-.18.29-.21-.88-1.16-1.75-2.32-2.61-3.5l-2.56-3.45-3.2-4.74c-1.07-1.59-2.14-3.18-3.23-4.75,0,0,0,2.11,0,4.68,0,4.51,0,4.69-.07,4.79a.59.59,0,0,1-.27.29c-.1.05-.19.06-.67.06h-.54l-.14-.09a.66.66,0,0,1-.21-.23L10,23V10.45l.1-.13a.68.68,0,0,1,.23-.18c.13-.07.18-.08.72-.08s.74,0,.91.21q1.95,2.89,3.86,5.81l6.31,9.57,2.54,3.84.12-.09a16.44,16.44,0,0,0,3.29-2.88,16,16,0,0,0,3.77-8.18A12.16,12.16,0,0,0,32,16a12.1,12.1,0,0,0-.14-2.33A16.07,16.07,0,0,0,20.91.75a17.21,17.21,0,0,0-3.32-.7C17.28,0,15.21,0,15,0ZM21.5,9.69a.66.66,0,0,1,.32.36c0,.09,0,1.83,0,5.74v5.63l-1-1.52-1-1.52V14.29c0-2.65,0-4.13,0-4.2a.67.67,0,0,1,.32-.4c.12-.06.17-.07.66-.07s.54,0,.65.07Z" transform="translate(0 0)"/>
</svg>
